<?xml version="1.0" encoding="UTF-8"?> <svg xmlns="http://www.w3.org/2000/svg" id="Layer_1" data-name="Layer 1" viewBox="0 0 810.28 178.58"><defs><style> .cls-1 { fill: #ec1c24; } .cls-2 { fill: #231f20; } </style></defs><g><path class="cls-2" d="m401.95,169.84v4.36h-78.55v-4.36h15.28V62.92h-15.28v-4.36h15.28c23.86,0,38.4-1.45,43.64-4.36h4.36v115.65h15.27Z"></path><path class="cls-2" d="m527.05,58.55v4.36l-64.55,106.92h11.56c8.28,0,15.35-1.15,21.21-3.44,5.85-2.29,10.56-5.78,14.12-10.47,3.56-4.69,6.31-9.93,8.23-15.71,1.93-5.78,3.4-12.78,4.42-21h4.36l-4.36,54.99h-114.22v-4.43l64.77-106.86h-2.18c-15.74,0-27.77,3.33-36.07,9.98-8.31,6.65-13.47,17.95-15.5,33.88h-4.36l2.4-52.59h4.36c.36,2.91,4.22,4.36,11.57,4.36h94.26-.02Z"></path><path class="cls-2" d="m651.28,58.55v4.36l-64.55,106.92h11.56c8.29,0,15.35-1.15,21.21-3.44,5.85-2.29,10.56-5.78,14.12-10.47s6.31-9.93,8.23-15.71c1.93-5.78,3.4-12.78,4.41-21h4.37l-4.37,54.99h-114.22v-4.43l64.77-106.86h-2.18c-15.74,0-27.77,3.33-36.07,9.98-8.31,6.65-13.47,17.95-15.5,33.88h-4.36l2.4-52.59h4.36c.36,2.91,4.22,4.36,11.57,4.36h94.26-.01Z"></path><path class="cls-2" d="m739.58,114.19v-19.2c0-6.62-.62-12.26-1.85-16.91-1.24-4.65-3.04-8.25-5.4-10.8-2.37-2.54-4.96-4.38-7.8-5.51-2.84-1.13-6.11-1.69-9.82-1.69-10.76,0-20.11,3.09-28.04,9.27,4.07-1.53,7.67-2.29,10.8-2.29,6.62,0,11.98,2.02,16.09,6.06,4.11,4.04,6.16,9.66,6.16,16.86,0,6.33-2.42,11.4-7.26,15.22s-10.64,5.73-17.4,5.73-12.33-2.18-16.91-6.55c-4.58-4.36-6.87-9.96-6.87-16.8,0-3.34.64-6.6,1.91-9.76,1.27-3.16,3.34-6.18,6.22-9.06,2.87-2.87,6.42-5.38,10.64-7.53,4.22-2.14,9.44-3.85,15.66-5.13,6.22-1.27,13.15-1.91,20.78-1.91,20.51,0,35.82,3.67,45.93,11.02,10.11,7.35,15.16,18.73,15.16,34.15v43.64c0,14.98,2.98,22.48,8.95,22.48,1.67,0,3.35-.91,5.02-2.73,1.67-1.82,3.05-4.18,4.15-7.09h4.58c-2.18,7.2-5.87,12.82-11.07,16.86s-11.91,6.06-20.13,6.06c-22.04,0-34.48-6.95-37.31-20.84-2.84,13.89-16.8,20.84-41.89,20.84-5.67,0-10.78-.53-15.33-1.58s-8.66-2.73-12.33-5.02c-3.67-2.29-6.53-5.47-8.56-9.55-2.04-4.07-3.05-8.87-3.05-14.4,0-4.8.98-9.06,2.94-12.77s4.84-6.78,8.62-9.22c3.78-2.44,7.98-4.45,12.6-6.06,4.62-1.6,10.09-2.8,16.42-3.6,6.33-.8,12.44-1.36,18.33-1.69s12.58-.49,20.08-.49h-.02Zm0,4.36c-10.04,0-16.98,1.95-20.84,5.84-3.86,3.89-5.78,10.89-5.78,21,0,6.33,1.26,11.26,3.76,14.78,2.51,3.53,5.69,5.29,9.55,5.29,1.16,0,2.2-.07,3.11-.22.91-.14,2.05-.64,3.44-1.47,1.38-.84,2.51-1.98,3.38-3.44.87-1.45,1.65-3.67,2.35-6.66.69-2.98,1.04-6.55,1.04-10.69v-24.44h0Z"></path></g><rect class="cls-1" x="336.01" width="52.27" height="49.95" rx="15.42" ry="15.42"></rect><path class="cls-2" d="m311.81,45.35c-3.02-6.04-7.49-10.76-13.42-14.18-5.93-3.42-12.75-5.89-20.46-7.42s-16.73-2.29-27.06-2.29h-89.03v4.36h16.37v25.97c21.54,9.07,32.33,33.49,24.34,55.62l9.04,4.56c-1.12,20.73-18.32,30.67-33.37,33.5v24.37h-16.37v4.36h91.21v-4.36h-18.11v-54.55h15.71c20.87,0,37.04-3.94,48.5-11.84,11.46-7.89,17.18-19.95,17.18-36.17,0-8.58-1.51-15.89-4.53-21.93Zm-71.84,65.57h-5.02V25.82h5.02c3.42,0,6.38.65,8.89,1.96s4.76,3.49,6.76,6.55c2,3.05,3.53,7.33,4.58,12.82s1.58,12.2,1.58,20.13c0,29.1-7.27,43.64-21.82,43.64h.01Z"></path><g><path class="cls-1" d="m25.48,96.7h-6.39v-19.09h6.39c5.25,0,9.54,4.29,9.54,9.54s-4.29,9.54-9.54,9.54m0-38.07H0v67.27h19.09v-10.11c9.92,0,18.99-.96,26.62-8.4,5.34-5.15,8.4-12.5,8.4-20.23,0-15.08-12.69-28.53-28.63-28.53"></path><polygon class="cls-1" points="89.21 86.78 62.69 55.96 51.24 125.9 67.55 125.9 72.99 97.96 88.83 112.28 104.68 97.96 109.16 125.9 127.1 125.9 114.69 55.96 89.21 86.78"></polygon><g><path class="cls-1" d="m155.07,108.51c-8.88-3.32-13.39-13.21-10.07-22.09,3.32-8.88,13.21-13.39,22.09-10.07,8.25,3.08,12.73,11.84,10.65,20.19l17.61,8.89c.02-.06.05-.11.07-.17,7.08-18.97-2.55-40.08-21.51-47.17-18.97-7.09-40.08,2.55-47.17,21.51-7.09,18.97,2.55,40.08,21.51,47.17,6.13,2.29,12.47,2.82,18.49,1.87l-5.22-19.05c-2.14.06-4.32-.29-6.45-1.08"></path><path class="cls-1" d="m194.39,109.84c-3.74,8.51-12.57,16.13-21.99,19.01l2.68,9.75c1.26.13,2.65.04,4.14-.24,9.96-1.85,23.84-12.19,24.98-23.57l-9.82-4.96h.01Z"></path><path class="cls-1" d="m191.43,108.34l-28.61-14.46,8.72,31.78c11.08-4.51,14.18-7.48,19.9-17.32"></path></g></g></svg> 