<svg width="4049" height="1656" viewBox="0 0 4049 1656" fill="none" xmlns="http://www.w3.org/2000/svg">
<path d="M3578.85 1656C3429 1656 3313.43 1616.15 3232.13 1536.45C3150.83 1455.94 3110.18 1346.35 3110.18 1207.66C3110.18 1068.98 3150.83 959.383 3232.13 878.881C3313.43 798.379 3429 758.128 3578.85 758.128C3728.69 758.128 3844.27 798.379 3925.57 878.881C4007.66 959.383 4048.71 1068.98 4048.71 1207.66C4049.51 1346.35 4008.86 1455.94 3926.76 1536.45C3845.46 1616.15 3729.49 1656 3578.85 1656ZM3534.61 832.253C3420.63 846.6 3379.19 978.512 3410.27 1227.99C3424.62 1345.95 3448.93 1436.42 3483.2 1499.38C3517.48 1561.55 3564.9 1589.05 3625.48 1581.88C3686.05 1574.7 3725.11 1537.24 3742.64 1469.49C3760.97 1400.95 3762.97 1306.9 3748.62 1187.34C3733.48 1068.58 3708.77 978.113 3674.49 915.944C3641.02 852.977 3594.39 825.08 3534.61 832.253Z" fill="#4162D8"/>
<path d="M1497.19 1656C1347.35 1656 1231.78 1616.15 1150.48 1536.45C1069.18 1455.94 1028.53 1346.35 1028.53 1207.66C1028.53 1068.98 1069.18 959.383 1150.48 878.881C1231.78 798.379 1347.35 758.128 1497.19 758.128C1647.04 758.128 1762.61 798.379 1843.91 878.881C1926.01 959.383 1967.05 1068.98 1967.05 1207.66C1967.85 1346.35 1927.2 1455.94 1845.11 1536.45C1763.81 1616.15 1647.84 1656 1497.19 1656ZM1452.96 832.253C1338.98 846.6 1297.53 978.512 1328.62 1227.99C1342.96 1345.95 1367.27 1436.42 1401.55 1499.38C1435.82 1561.55 1483.25 1589.05 1543.82 1581.88C1604.4 1574.7 1643.45 1537.24 1660.99 1469.49C1679.32 1400.95 1681.31 1306.9 1666.97 1187.34C1651.82 1068.58 1627.11 978.113 1592.84 915.944C1559.36 852.977 1512.74 825.08 1452.96 832.253Z" fill="#4162D8"/>
<path d="M904.25 524.58L814.87 287.442L910.463 245.451C939.956 232.495 964.661 228.522 984.579 233.531C1004.7 238.45 1020.29 255.559 1031.33 284.859C1036.57 298.771 1038.75 311.572 1037.87 323.261C1036.99 334.951 1033.68 345.619 1027.94 355.265C1022.12 364.7 1014.05 373.279 1003.74 381.002C993.639 388.635 982.09 395.305 969.097 401.013L935.376 415.825L966.123 497.4L904.25 524.58ZM925.75 303.229L897.598 315.595L916.308 365.236L944.46 352.869C956.01 347.796 963.402 342.215 966.636 336.126C969.87 330.037 969.779 322.461 966.362 313.397C963.185 304.966 958.406 299.94 952.026 298.32C945.852 296.61 937.094 298.246 925.75 303.229Z" fill="#4162D8"/>
<path d="M1292.67 372.647L1228.26 393.081L1161.7 148.556L1226.11 128.121L1292.67 372.647Z" fill="#4162D8"/>
<path d="M1626.42 231.06L1636.53 289.321L1447.75 327.496L1439.09 277.558L1521.18 114.501L1414.54 136.066L1404.43 77.8047L1593.21 39.6298L1601.29 86.2389L1518.12 252.96L1626.42 231.06Z" fill="#4162D8"/>
<path d="M1977.95 195.195L1981.47 254.221L1789.34 267.599L1786.31 217.005L1886.29 66.0972L1777.75 73.6545L1774.22 14.6279L1966.36 1.24999L1969.18 48.4713L1867.72 202.869L1977.95 195.195Z" fill="#4162D8"/>
<path d="M2137.84 253.414L2151.07 0.336914L2343.65 12.066L2340.56 71.1173L2215.44 63.4965L2213.48 100.952L2315 107.135L2312.18 161.125L2210.66 154.942L2208.47 196.784L2333.6 204.404L2330.43 265.143L2137.84 253.414Z" fill="#4162D8"/>
<path d="M2548.9 297.98L2482.54 285.159L2524 35.1494L2623.52 54.3817C2656.92 60.8353 2681.4 70.8401 2696.95 84.3963C2712.73 97.9953 2718.65 116.684 2714.71 140.463C2712.05 156.463 2705.99 168.25 2696.52 175.823C2687.08 183.173 2675.82 187.763 2662.73 189.592C2674.79 195.362 2682.75 203.093 2686.62 212.786C2690.49 222.478 2691.31 234.103 2689.06 247.659L2684.03 277.993C2682.63 286.438 2682.74 294.028 2684.36 300.763C2686.02 307.276 2688.86 312.871 2692.88 317.546L2691.55 325.546L2623.87 312.468C2620.11 308.99 2617.48 304.237 2615.96 298.211C2614.45 292.186 2614.6 283.728 2616.41 272.839L2621.43 242.504C2622.47 236.282 2621.78 230.76 2619.39 225.94C2616.99 221.119 2612.25 218.025 2605.18 216.657L2563.71 208.644L2548.9 297.98ZM2642.55 144.065C2643.95 135.62 2642.22 128.863 2637.35 123.795C2632.74 118.547 2624.14 114.705 2611.53 112.268L2580.68 106.306L2572.55 155.308L2606.72 161.911C2617.56 164.006 2625.87 163.433 2631.66 160.194C2637.67 156.997 2641.3 151.621 2642.55 144.065Z" fill="#4162D8"/>
<path d="M2885.51 383.217L2820.92 363.336L2885.63 118.315L2950.22 138.196L2885.51 383.217Z" fill="#4162D8"/>
<path d="M3082.29 455.661L3021.85 429.418L3201.14 231.375L3260.64 257.214L3262.98 534.122L3200.06 506.802L3200.18 457.193L3114.02 419.779L3082.29 455.661ZM3151.49 377.193L3200.46 398.457L3200.63 321.648L3151.49 377.193Z" fill="#4162D8"/>
<path d="M0.902142 1199.18C-3.88015 1062.09 35.1753 952.891 118.068 871.592C201.758 790.293 318.925 749.644 469.567 749.644C577.169 749.644 666.04 767.179 736.18 802.249C806.32 837.319 852.948 886.337 876.062 949.304C883.235 967.636 886.822 987.961 886.822 1010.28C886.822 1031.8 882.837 1052.92 874.866 1073.64C867.693 1093.57 854.143 1110.71 834.217 1125.05C814.291 1139.4 789.582 1147.77 760.091 1150.16C705.892 1154.94 661.656 1143.39 627.383 1115.49C593.907 1087.59 579.161 1046.54 583.146 992.345C587.929 924.596 575.176 877.968 544.888 852.463C515.397 826.957 475.545 817.393 425.331 823.769C312.947 837.319 271.5 969.231 300.991 1219.5C323.308 1406.81 399.028 1512.02 528.15 1535.14C601.479 1548.69 664.445 1535.53 717.051 1495.68C759.91 1463.21 772.342 1429.62 778.025 1395.52C780.416 1381.17 782.807 1369.62 785.198 1360.85C788.387 1352.08 793.966 1343.71 801.936 1335.74C810.704 1327.77 821.464 1324.18 834.217 1324.98C866.099 1327.37 897.705 1351.56 891.328 1401.78C879.404 1495.68 812.982 1541.53 779.221 1566.22C705.095 1620.42 604.268 1647.52 476.74 1647.52C329.286 1647.52 214.113 1606.47 131.22 1524.38C49.1236 1442.28 5.68444 1333.88 0.902142 1199.18Z" fill="#4162D8"/>
<path d="M2089.72 1199.18C2084.94 1062.09 2123.99 952.891 2206.89 871.592C2290.58 790.293 2407.74 749.644 2558.39 749.644C2665.99 749.644 2754.86 767.179 2825 802.249C2895.14 837.319 2941.77 886.337 2964.88 949.304C2972.05 967.636 2975.64 987.961 2975.64 1010.28C2975.64 1031.8 2971.66 1052.92 2963.69 1073.64C2956.51 1093.57 2942.96 1110.71 2923.04 1125.05C2903.11 1139.4 2878.4 1147.77 2848.91 1150.16C2794.71 1154.94 2750.47 1143.39 2716.2 1115.49C2682.73 1087.59 2667.98 1046.54 2671.97 992.345C2676.75 924.596 2663.99 877.968 2633.71 852.463C2604.22 826.957 2564.36 817.393 2514.15 823.769C2401.77 837.319 2360.32 969.231 2389.81 1219.5C2412.13 1406.81 2487.85 1512.02 2616.97 1535.14C2690.3 1548.69 2753.26 1535.53 2805.87 1495.68C2848.73 1463.21 2861.16 1429.62 2866.84 1395.52C2869.24 1381.17 2871.63 1369.62 2874.02 1360.85C2877.21 1352.08 2882.78 1343.71 2890.76 1335.74C2899.52 1327.77 2910.28 1324.18 2923.04 1324.98C2954.92 1327.37 2986.52 1351.56 2980.15 1401.78C2968.22 1495.68 2901.8 1541.53 2868.04 1566.22C2793.91 1620.42 2693.09 1647.52 2565.56 1647.52C2418.11 1647.52 2302.93 1606.47 2220.04 1524.38C2137.94 1442.28 2094.5 1333.88 2089.72 1199.18Z" fill="#4162D8"/>
</svg>
